<svg width="512" height="512" viewBox="0 0 512 512" fill="none" xmlns="http://www.w3.org/2000/svg">
  <g clip-path="url(#clip0_99_2)">
    <mask
      id="mask0_99_2"
      style="mask-type: luminance"
      maskUnits="userSpaceOnUse"
      x="0"
      y="0"
      width="512"
      height="512"
    >
      <path d="M512 0H0V512H512V0Z" fill="white" />
    </mask>
    <g mask="url(#mask0_99_2)">
      <path
        d="M471.53 121.216C498.583 160.652 507.202 232.113 482.012 304.295C457.133 375.59 399.598 446.16 296.671 483.551C283.528 488.325 268.398 478.295 268.398 461.469C268.398 432.662 246.445 409.672 219.129 405.546C168.866 397.953 101.449 380.083 58.2157 338.174C36.9836 317.592 21.5143 291.156 16.634 256.608C11.7199 221.821 17.3886 177.656 40.5968 121.65C43.5975 114.408 45.5871 105.684 44.7031 96.6213C43.8506 87.8823 42.4259 78.4389 41.0353 69.3862C40.9367 68.744 40.8382 68.1037 40.74 67.4655C39.429 58.9421 38.1745 50.7864 37.3213 43.2303C36.3936 35.0138 36.0459 28.3386 36.4424 23.3757C36.55 22.0294 36.6991 20.9928 36.8481 20.2098C39.4779 20.7389 43.2529 22.0391 48.3422 24.3466C53.9244 26.8776 60.1007 30.1528 66.8633 33.8017C67.6746 34.2395 68.4948 34.6829 69.3222 35.1302C75.2202 38.3187 81.4887 41.7075 87.5828 44.7022C102.567 52.0659 118.908 49.8877 131.728 43.8045C181.647 20.1174 224.697 13.2058 263.796 15.377C303.139 17.5617 339.272 28.9755 375.525 43.1477C385.922 47.2121 398.122 48.4972 409.983 44.5466C417.221 42.1362 424.784 39.251 431.937 36.4924C432.785 36.1653 433.626 35.8403 434.461 35.518C440.793 33.0724 446.733 30.7782 452.207 28.8567C457.032 27.1629 461.026 25.9301 464.188 25.1825C464.318 27.6284 464.303 30.7069 464.107 34.4383C463.513 45.7149 461.455 60.0521 459.189 74.9429C456.5 92.604 463.078 108.893 471.53 121.216Z"
        stroke="url(#paint0_linear_99_2)"
        stroke-width="30"
        stroke-linecap="round"
        stroke-linejoin="round"
      />
      <path
        d="M159 170C216.665 167.483 277.376 169.339 331 161"
        stroke="#298AFC"
        stroke-width="30"
        stroke-linecap="round"
        stroke-linejoin="round"
      />
      <path
        d="M227.342 123C221.935 195.62 221.155 286.719 240 320"
        stroke="url(#paint1_linear_99_2)"
        stroke-width="30"
        stroke-linecap="round"
        stroke-linejoin="round"
      />
      <path
        d="M293.823 204C276.009 250.419 250.671 303.879 193.71 319.236C158.277 328.789 141.494 275.701 196.562 237.273C234.944 210.477 295.412 210.837 326.344 233.236C392.357 281.06 322.194 327.683 262.588 340"
        stroke="url(#paint2_linear_99_2)"
        stroke-width="30"
        stroke-linecap="round"
        stroke-linejoin="round"
      />
      <path
        d="M392 222C403.046 222 412 213.046 412 202C412 190.954 403.046 182 392 182C380.954 182 372 190.954 372 202C372 213.046 380.954 222 392 222Z"
        fill="url(#paint3_linear_99_2)"
      />
    </g>
  </g>
  <defs>
    <linearGradient
      id="paint0_linear_99_2"
      x1="256"
      y1="3.33786e-05"
      x2="256"
      y2="512"
      gradientUnits="userSpaceOnUse"
    >
      <stop stop-color="#0075FF" />
      <stop offset="0.489583" stop-color="#00E0FF" />
      <stop offset="1" stop-color="#298AFC" />
    </linearGradient>
    <linearGradient
      id="paint1_linear_99_2"
      x1="232"
      y1="123"
      x2="232"
      y2="320"
      gradientUnits="userSpaceOnUse"
    >
      <stop stop-color="#298AFC" />
      <stop offset="0.53125" stop-color="#00E0FF" />
      <stop offset="1" stop-color="#298AFC" />
    </linearGradient>
    <linearGradient
      id="paint2_linear_99_2"
      x1="257"
      y1="204"
      x2="257"
      y2="340"
      gradientUnits="userSpaceOnUse"
    >
      <stop stop-color="#298AFC" />
      <stop offset="0.510417" stop-color="#00E0FF" />
      <stop offset="1" stop-color="#298AFC" />
    </linearGradient>
    <linearGradient
      id="paint3_linear_99_2"
      x1="392"
      y1="182"
      x2="392"
      y2="222"
      gradientUnits="userSpaceOnUse"
    >
      <stop stop-color="#00E0FF" />
      <stop offset="1" stop-color="#298AFC" />
    </linearGradient>
    <clipPath id="clip0_99_2">
      <rect width="512" height="512" fill="white" />
    </clipPath>
  </defs>
</svg>
