<svg width="1em" height="1em" viewBox="0 0 24 24" fill="none" xmlns="http://www.w3.org/2000/svg">
  <g clip-path="url(#clip0_4_134)">
    <path
      fill-rule="evenodd"
      clip-rule="evenodd"
      d="M21 12C21.2652 12 21.5196 12.1054 21.7071 12.2929C21.8947 12.4804 22 12.7348 22 13V19C21.9999 19.2285 21.9215 19.4502 21.7779 19.6279C21.6343 19.8057 21.4342 19.929 21.2108 19.9771C20.9874 20.0253 20.7542 19.9955 20.5501 19.8927C20.346 19.7898 20.1833 19.6202 20.089 19.412C19.4827 19.783 18.7885 19.9857 18.0778 19.9993C17.3672 20.0129 16.6657 19.8368 16.0457 19.4893C15.4256 19.1418 14.9094 18.6353 14.5501 18.022C14.1908 17.4087 14.0014 16.7108 14.0014 16C14.0014 15.2892 14.1908 14.5913 14.5501 13.978C14.9094 13.3647 15.4256 12.8582 16.0457 12.5107C16.6657 12.1632 17.3672 11.9871 18.0778 12.0007C18.7885 12.0143 19.4827 12.217 20.089 12.588C20.1682 12.4128 20.2963 12.2641 20.4579 12.1598C20.6195 12.0555 20.8077 12 21 12ZM8.00001 4C8.73201 4 9.38101 4.473 9.60501 5.17L13.952 18.694C14.0308 18.9458 14.0069 19.2186 13.8854 19.4529C13.764 19.6871 13.5549 19.8639 13.3036 19.9447C13.0524 20.0254 12.7795 20.0036 12.5443 19.884C12.3091 19.7643 12.1307 19.5566 12.048 19.306L10.664 15H5.33601L3.95201 19.306C3.86932 19.5566 3.69094 19.7643 3.45574 19.884C3.22054 20.0036 2.94759 20.0254 2.69637 19.9447C2.44516 19.8639 2.23604 19.6871 2.11459 19.4529C1.99314 19.2186 1.96921 18.9458 2.04801 18.694L6.39501 5.17C6.50425 4.8302 6.71851 4.53383 7.00694 4.32357C7.29537 4.11332 7.64308 4.00002 8.00001 4ZM18 14C17.4696 14 16.9609 14.2107 16.5858 14.5858C16.2107 14.9609 16 15.4696 16 16C16 16.5304 16.2107 17.0391 16.5858 17.4142C16.9609 17.7893 17.4696 18 18 18C18.5304 18 19.0392 17.7893 19.4142 17.4142C19.7893 17.0391 20 16.5304 20 16C20 15.4696 19.7893 14.9609 19.4142 14.5858C19.0392 14.2107 18.5304 14 18 14ZM8.00001 6.712L5.97901 13H10.021L8.00001 6.712Z"
      fill="currentColor"
    />
  </g>
</svg>
