<svg
  width="1em"
  height="1em"
  viewBox="0 0 24 24"
  fill="none"
  xmlns="http://www.w3.org/2000/svg"
>
  <path
    d="M19.4352 5.07978C18.4385 4.08428 17.2542 3.29905 15.9517 2.77019C14.6493 2.24133 13.2549 1.97948 11.8505 2.00001C9.21408 1.99338 6.68302 3.04051 4.81413 4.91104C2.94524 6.78158 1.8916 9.3223 1.88501 11.9743C1.87842 14.6262 2.91941 17.1722 4.77898 19.0521C6.63855 20.932 9.16438 21.9919 11.8008 21.9985C12.3689 22.0082 12.9241 21.8279 13.3793 21.4859C13.8345 21.1438 14.1639 20.6594 14.3158 20.1087C14.4126 19.7109 14.4116 19.2955 14.3129 18.8982C14.2141 18.501 14.0207 18.1339 13.7492 17.8288C13.6864 17.757 13.6454 17.6685 13.6311 17.5739C13.6169 17.4793 13.6298 17.3826 13.6686 17.2953C13.7073 17.2079 13.7701 17.1335 13.8496 17.081C13.9291 17.0285 14.0219 17 14.117 16.9989H15.7572C17.3009 17.0061 18.7902 16.4257 19.926 15.374C21.0619 14.3224 21.7601 12.8774 21.8806 11.3293C21.9176 10.175 21.7198 9.02527 21.2993 7.95062C20.8788 6.87597 20.2444 5.89905 19.4352 5.07978ZM15.7969 14.999H14.1567C13.6777 14.9963 13.2082 15.1335 12.8052 15.3938C12.4021 15.6542 12.0828 16.0266 11.886 16.4659C11.6892 16.9052 11.6234 17.3926 11.6965 17.8688C11.7696 18.345 11.9785 18.7896 12.2978 19.1487C12.36 19.2118 12.404 19.2908 12.425 19.3771C12.446 19.4634 12.4433 19.5538 12.4171 19.6387C12.3674 19.8487 12.1388 19.9787 11.8306 19.9987C10.7017 19.9841 9.58877 19.7279 8.5659 19.2471C7.54303 18.7663 6.63367 18.072 5.89828 17.2102C5.1629 16.3485 4.61836 15.3391 4.30089 14.2493C3.98342 13.1594 3.90029 12.014 4.05704 10.8893C4.34051 8.99943 5.2793 7.27124 6.70735 6.01044C8.1354 4.74964 9.96071 4.03746 11.8604 3.99986H11.94C13.0641 3.98505 14.1798 4.19685 15.2212 4.62275C16.2627 5.04866 17.2088 5.68005 18.0038 6.47967C18.6241 7.10402 19.1114 7.84892 19.4362 8.66895C19.7609 9.48898 19.9161 10.3669 19.8925 11.2493C19.7895 12.2723 19.3145 13.221 18.5585 13.9131C17.8026 14.6052 16.8191 14.9919 15.7969 14.999Z"
    fill="currentColor"
  />
  <path
    d="M11.9399 7.99956C12.7635 7.99956 13.431 7.32804 13.431 6.49967C13.431 5.67131 12.7635 4.99979 11.9399 4.99979C11.1164 4.99979 10.4489 5.67131 10.4489 6.49967C10.4489 7.32804 11.1164 7.99956 11.9399 7.99956Z"
    fill="currentColor"
  />
  <path
    d="M15.1706 7.19961C14.9153 7.34796 14.7095 7.56912 14.5791 7.83512C14.4487 8.10113 14.3997 8.40005 14.4381 8.69409C14.4766 8.98813 14.6009 9.2641 14.7952 9.48712C14.9896 9.71013 15.2453 9.87018 15.5301 9.94703C15.8149 10.0239 16.1159 10.0141 16.3951 9.91889C16.6744 9.82368 16.9193 9.64735 17.0989 9.41216C17.2785 9.17698 17.3848 8.89351 17.4043 8.59758C17.4238 8.30165 17.3557 8.00655 17.2085 7.74957C17.1106 7.57878 16.9803 7.42907 16.8249 7.30898C16.6695 7.1889 16.4921 7.1008 16.3029 7.04972C16.1136 6.99864 15.9162 6.98559 15.7219 7.01131C15.5276 7.03703 15.3403 7.10102 15.1706 7.19961ZM8.70922 7.19961C8.45375 7.05155 8.16037 6.98299 7.86618 7.00261C7.57199 7.02222 7.29018 7.12913 7.05637 7.30982C6.82257 7.4905 6.64726 7.73686 6.55262 8.01774C6.45797 8.29862 6.44823 8.60143 6.52463 8.88787C6.60104 9.17432 6.76015 9.43156 6.98185 9.62707C7.20356 9.82257 7.47792 9.94758 7.77024 9.98627C8.06255 10.025 8.35972 9.97563 8.62417 9.84448C8.88861 9.71334 9.10847 9.50627 9.25595 9.24946C9.35397 9.07878 9.41758 8.89034 9.44315 8.69492C9.46872 8.4995 9.45574 8.30092 9.40496 8.11055C9.35419 7.92017 9.2666 7.74173 9.14722 7.58542C9.02784 7.42912 8.879 7.29802 8.70922 7.19961ZM6.13459 11.2593C5.89002 11.4254 5.69995 11.6608 5.58844 11.9356C5.47694 12.2105 5.44902 12.5124 5.50821 12.8032C5.5674 13.094 5.71105 13.3606 5.92097 13.5693C6.13088 13.7779 6.39762 13.9192 6.68741 13.9753C6.97721 14.0313 7.27702 13.9996 7.54889 13.8842C7.82076 13.7687 8.05247 13.5747 8.21467 13.3268C8.37687 13.0788 8.46227 12.788 8.46006 12.4911C8.45784 12.1943 8.36812 11.9048 8.20224 11.6593C8.09327 11.4956 7.95312 11.3554 7.78991 11.2466C7.6267 11.1377 7.44366 11.0626 7.25137 11.0254C7.05909 10.9882 6.86139 10.9897 6.66969 11.0299C6.478 11.07 6.29613 11.148 6.13459 11.2593Z"
    fill="currentColor"
  />
</svg>
