<svg
  width="3447"
  height="640"
  viewBox="0 0 3447 640"
  fill="none"
  xmlns="http://www.w3.org/2000/svg"
>
  <rect width="3447" height="640" fill="#1C2732" />
  <path
    d="M778.8 408L813.6 189H954.6L947.7 231H851.1L843.6 279.6H932.4L925.8 321.6H837.6L823.8 408H778.8ZM1027.08 411C1004.88 411 988.483 405 977.883 393C967.483 381 963.883 364.6 967.083 343.8L982.983 243H1027.98L1012.08 343.5C1009.08 362.5 1016.18 372 1033.38 372C1050.58 372 1060.68 362.5 1063.68 343.5L1079.58 243H1124.58L1108.68 343.8C1105.48 365 1096.68 381.5 1082.28 393.3C1068.08 405.1 1049.68 411 1027.08 411ZM1143.37 408L1169.47 243H1212.97L1208.17 273.9C1212.37 263.3 1218.97 255 1227.97 249C1236.97 243 1247.57 240 1259.77 240C1276.37 240 1288.47 245.6 1296.07 256.8C1303.67 268 1305.87 283.4 1302.67 303L1300.27 319.5H1255.27L1257.37 306C1258.77 297.4 1257.47 290.8 1253.47 286.2C1249.67 281.4 1243.57 279 1235.17 279C1226.77 279 1219.87 281.7 1214.47 287.1C1209.07 292.3 1205.57 299.8 1203.97 309.6L1188.37 408H1143.37ZM1318.45 408L1325.05 367.2H1382.05L1395.25 283.5H1345.75L1352.05 243H1443.55L1424.05 367.2H1472.05L1465.45 408H1318.45ZM1423.75 216.9C1415.55 216.9 1409.35 214.8 1405.15 210.6C1400.95 206.4 1399.35 200.7 1400.35 193.5C1401.55 186.3 1404.95 180.6 1410.55 176.4C1416.15 172.2 1423.05 170.1 1431.25 170.1C1439.45 170.1 1445.65 172.2 1449.85 176.4C1454.05 180.6 1455.55 186.3 1454.35 193.5C1453.35 200.7 1450.05 206.4 1444.45 210.6C1438.85 214.8 1431.95 216.9 1423.75 216.9ZM1512.13 462L1517.83 426H1564.33C1572.73 426 1579.53 423.9 1584.73 419.7C1590.13 415.5 1593.33 409.7 1594.33 402.3L1595.23 396L1599.43 372.6C1588.63 390.2 1572.73 399 1551.73 399C1535.13 399 1522.73 393.2 1514.53 381.6C1506.33 370 1503.83 354.3 1507.03 334.5L1511.83 304.5C1515.03 284.9 1522.53 269.3 1534.33 257.7C1546.13 245.9 1560.33 240 1576.93 240C1587.13 240 1595.53 242.4 1602.13 247.2C1608.93 252 1613.63 258.9 1616.23 267.9L1620.13 243H1663.63L1638.13 403.8C1635.33 421.8 1626.93 436 1612.93 446.4C1598.93 456.8 1581.33 462 1560.13 462H1512.13ZM1573.93 360C1582.13 360 1588.93 357.7 1594.33 353.1C1599.73 348.3 1603.13 341.6 1604.53 333L1608.73 306C1610.13 297.4 1608.83 290.8 1604.83 286.2C1601.03 281.4 1595.03 279 1586.83 279C1578.43 279 1571.63 281.4 1566.43 286.2C1561.23 290.8 1557.93 297.4 1556.53 306L1552.33 333C1550.93 341.6 1552.03 348.3 1555.63 353.1C1559.43 357.7 1565.53 360 1573.93 360ZM1722.61 411C1712.41 411 1703.91 408.3 1697.11 402.9C1690.31 397.3 1685.61 389.7 1683.01 380.1C1680.41 370.3 1680.11 359.1 1682.11 346.5L1689.01 304.5C1691.21 291.7 1695.21 280.5 1701.01 270.9C1706.81 261.3 1713.91 253.8 1722.31 248.4C1730.91 242.8 1740.11 240 1749.91 240C1760.11 240 1768.21 243.1 1774.21 249.3C1780.21 255.5 1783.31 263.9 1783.51 274.5H1784.41L1788.31 243H1833.01L1815.01 357.6C1814.41 361 1815.01 363.8 1816.81 366C1818.81 368 1821.51 369 1824.91 369H1838.71L1832.41 408H1815.91C1803.11 408 1793.21 404.8 1786.21 398.4C1779.21 391.8 1776.51 383.3 1778.11 372.9L1778.41 370.5H1777.81C1774.41 382.7 1767.61 392.5 1757.41 399.9C1747.41 407.3 1735.81 411 1722.61 411ZM1745.11 372C1752.11 372 1758.01 369.6 1762.81 364.8C1767.61 359.8 1770.61 353.2 1771.81 345L1778.11 306C1779.51 297.8 1778.51 291.3 1775.11 286.5C1771.91 281.5 1766.81 279 1759.81 279C1753.01 279 1747.31 281.5 1742.71 286.5C1738.11 291.3 1735.11 297.8 1733.71 306L1727.41 345C1726.21 353.2 1727.11 359.8 1730.11 364.8C1733.31 369.6 1738.31 372 1745.11 372ZM1856.9 408L1883 243H1926.5L1921.4 273.6C1925.4 263.4 1931.9 255.3 1940.9 249.3C1949.9 243.1 1960.1 240 1971.5 240C1987.5 240 1999.4 245.6 2007.2 256.8C2015.2 268 2017.7 282.9 2014.7 301.5L1997.9 408H1952.9L1969.1 306C1970.5 297.4 1969.3 290.8 1965.5 286.2C1961.7 281.4 1955.8 279 1947.8 279C1939.8 279 1933.2 281.4 1928 286.2C1922.8 290.8 1919.5 297.4 1918.1 306L1901.9 408H1856.9ZM2082.38 411C2072.18 411 2063.68 408.3 2056.88 402.9C2050.08 397.3 2045.38 389.7 2042.78 380.1C2040.18 370.3 2039.88 359.1 2041.88 346.5L2048.78 304.5C2050.98 291.7 2054.98 280.5 2060.78 270.9C2066.58 261.3 2073.68 253.8 2082.08 248.4C2090.68 242.8 2099.88 240 2109.68 240C2119.88 240 2127.98 243.1 2133.98 249.3C2139.98 255.5 2143.08 263.9 2143.28 274.5H2144.18L2148.08 243H2192.78L2174.78 357.6C2174.18 361 2174.78 363.8 2176.58 366C2178.58 368 2181.28 369 2184.68 369H2198.48L2192.18 408H2175.68C2162.88 408 2152.98 404.8 2145.98 398.4C2138.98 391.8 2136.28 383.3 2137.88 372.9L2138.18 370.5H2137.58C2134.18 382.7 2127.38 392.5 2117.18 399.9C2107.18 407.3 2095.58 411 2082.38 411ZM2104.88 372C2111.88 372 2117.78 369.6 2122.58 364.8C2127.38 359.8 2130.38 353.2 2131.58 345L2137.88 306C2139.28 297.8 2138.28 291.3 2134.88 286.5C2131.68 281.5 2126.58 279 2119.58 279C2112.78 279 2107.08 281.5 2102.48 286.5C2097.88 291.3 2094.88 297.8 2093.48 306L2087.18 345C2085.98 353.2 2086.88 359.8 2089.88 364.8C2093.08 369.6 2098.08 372 2104.88 372ZM2389.35 408L2424.15 189H2477.85L2485.05 282.6L2522.25 189H2578.95L2544.15 408H2503.05L2516.25 324C2519.65 302 2523.95 280.9 2529.15 260.7C2534.35 240.3 2539.15 222.4 2543.55 207L2498.85 315H2462.85L2452.65 209.7C2452.45 222.7 2451.75 239.3 2450.55 259.5C2449.55 279.5 2447.25 301 2443.65 324L2430.45 408H2389.35ZM2622.03 411C2611.83 411 2603.33 408.3 2596.53 402.9C2589.73 397.3 2585.03 389.7 2582.43 380.1C2579.83 370.3 2579.53 359.1 2581.53 346.5L2588.43 304.5C2590.63 291.7 2594.63 280.5 2600.43 270.9C2606.23 261.3 2613.33 253.8 2621.73 248.4C2630.33 242.8 2639.53 240 2649.33 240C2659.53 240 2667.63 243.1 2673.63 249.3C2679.63 255.5 2682.73 263.9 2682.93 274.5H2683.83L2687.73 243H2732.43L2714.43 357.6C2713.83 361 2714.43 363.8 2716.23 366C2718.23 368 2720.93 369 2724.33 369H2738.13L2731.83 408H2715.33C2702.53 408 2692.63 404.8 2685.63 398.4C2678.63 391.8 2675.93 383.3 2677.53 372.9L2677.83 370.5H2677.23C2673.83 382.7 2667.03 392.5 2656.83 399.9C2646.83 407.3 2635.23 411 2622.03 411ZM2644.53 372C2651.53 372 2657.43 369.6 2662.23 364.8C2667.03 359.8 2670.03 353.2 2671.23 345L2677.53 306C2678.93 297.8 2677.93 291.3 2674.53 286.5C2671.33 281.5 2666.23 279 2659.23 279C2652.43 279 2646.73 281.5 2642.13 286.5C2637.53 291.3 2634.53 297.8 2633.13 306L2626.83 345C2625.63 353.2 2626.53 359.8 2629.53 364.8C2632.73 369.6 2637.73 372 2644.53 372ZM2757.81 408L2792.61 189H2837.61L2819.01 305.4H2840.61L2885.01 243H2935.71L2877.21 323.7L2910.51 408H2861.31L2837.01 343.2H2813.01L2802.81 408H2757.81ZM3006.09 411C2991.69 411 2979.49 408.2 2969.49 402.6C2959.49 397 2952.19 389.2 2947.59 379.2C2943.19 369.2 2942.09 357.8 2944.29 345L2950.59 306C2954.19 285 2963.19 268.8 2977.59 257.4C2991.99 245.8 3010.59 240 3033.39 240C3047.59 240 3059.69 242.4 3069.69 247.2C3079.89 251.8 3087.39 258.3 3092.19 266.7C3096.99 275.1 3098.49 284.9 3096.69 296.1C3094.69 309.3 3089.09 319.6 3079.89 327C3070.89 334.2 3059.29 337.8 3045.09 337.8H2988.69L2987.19 345C2985.19 355.4 2986.29 363 2990.49 367.8C2994.89 372.6 3001.99 375 3011.79 375C3018.19 375 3023.89 374 3028.89 372C3034.09 370 3037.49 367 3039.09 363H3083.19C3077.59 378.2 3067.99 390 3054.39 398.4C3040.99 406.8 3024.89 411 3006.09 411ZM2992.89 309.9L3038.79 309.3C3042.19 309.3 3044.99 308.4 3047.19 306.6C3049.39 304.8 3050.89 301.5 3051.69 296.7C3052.89 289.7 3051.29 284.1 3046.89 279.9C3042.49 275.5 3036.19 273.3 3027.99 273.3C3018.19 273.3 3010.39 276.2 3004.59 282C2998.79 287.8 2995.09 295.8 2993.49 306L2992.89 309.9ZM3122.08 408L3148.18 243H3191.68L3186.88 273.9C3191.08 263.3 3197.68 255 3206.68 249C3215.68 243 3226.28 240 3238.48 240C3255.08 240 3267.18 245.6 3274.78 256.8C3282.38 268 3284.58 283.4 3281.38 303L3278.98 319.5H3233.98L3236.08 306C3237.48 297.4 3236.18 290.8 3232.18 286.2C3228.38 281.4 3222.28 279 3213.88 279C3205.48 279 3198.58 281.7 3193.18 287.1C3187.78 292.3 3184.28 299.8 3182.68 309.6L3167.08 408H3122.08Z"
    fill="url(#paint0_linear_21_34)"
  />
  <g clip-path="url(#clip0_21_34)">
    <path
      d="M645.53 185.216C672.583 224.652 681.202 296.113 656.012 368.295C631.133 439.59 573.598 510.16 470.671 547.551C457.528 552.325 442.398 542.295 442.398 525.469C442.398 496.662 420.445 473.672 393.129 469.546C342.866 461.953 275.449 444.083 232.216 402.174C210.983 381.592 195.514 355.156 190.634 320.608C185.72 285.821 191.388 241.656 214.597 185.65C217.597 178.408 219.587 169.684 218.703 160.621C217.85 151.882 216.426 142.439 215.035 133.386C214.936 132.744 214.838 132.104 214.74 131.466C213.429 122.942 212.174 114.786 211.321 107.23C210.393 99.0138 210.046 92.3386 210.442 87.3757C210.55 86.0294 210.699 84.9928 210.848 84.2098C213.478 84.7389 217.253 86.0391 222.342 88.3466C227.924 90.8776 234.1 94.1528 240.863 97.8017C241.674 98.2395 242.495 98.6829 243.322 99.1302C249.22 102.319 255.489 105.707 261.583 108.702C276.567 116.066 292.908 113.888 305.728 107.804C355.647 84.1174 398.697 77.2058 437.796 79.377C477.139 81.5617 513.272 92.9755 549.525 107.148C559.922 111.212 572.122 112.497 583.983 108.547C591.221 106.136 598.784 103.251 605.937 100.492C606.785 100.165 607.626 99.8403 608.461 99.518C614.793 97.0724 620.733 94.7782 626.207 92.8567C631.032 91.1629 635.026 89.9301 638.188 89.1825C638.318 91.6284 638.303 94.7069 638.107 98.4383C637.513 109.715 635.455 124.052 633.189 138.943C630.5 156.604 637.078 172.893 645.53 185.216ZM208.497 83.9447C208.496 83.9435 208.522 83.9399 208.578 83.9377C208.527 83.9449 208.499 83.946 208.497 83.9447ZM637.434 83.9301C637.437 83.926 637.462 83.9815 637.502 84.1089C637.452 83.9978 637.432 83.9341 637.434 83.9301Z"
      fill="#1C2732"
      stroke="url(#paint1_linear_21_34)"
      stroke-width="30"
      stroke-linecap="round"
      stroke-linejoin="round"
    />
    <path
      d="M333 234C390.665 231.483 451.376 233.339 505 225"
      stroke="#298AFC"
      stroke-width="30"
      stroke-linecap="round"
      stroke-linejoin="round"
    />
    <path
      d="M401.342 187C395.935 259.62 395.155 350.719 414 384"
      stroke="url(#paint2_linear_21_34)"
      stroke-width="30"
      stroke-linecap="round"
      stroke-linejoin="round"
    />
    <path
      d="M467.823 268C450.009 314.419 424.671 367.879 367.71 383.236C332.277 392.789 315.494 339.701 370.562 301.273C408.944 274.477 469.412 274.837 500.344 297.236C566.357 345.06 496.194 391.683 436.588 404"
      stroke="url(#paint3_linear_21_34)"
      stroke-width="30"
      stroke-linecap="round"
      stroke-linejoin="round"
    />
    <circle cx="566" cy="266" r="20" fill="url(#paint4_linear_21_34)" />
  </g>
  <defs>
    <linearGradient
      id="paint0_linear_21_34"
      x1="2042.5"
      y1="102"
      x2="2042.5"
      y2="358"
      gradientUnits="userSpaceOnUse"
    >
      <stop stop-color="#00E0FF" />
      <stop offset="0.453125" stop-color="#298AFC" />
      <stop offset="1" stop-color="#00E0FF" />
    </linearGradient>
    <linearGradient
      id="paint1_linear_21_34"
      x1="430"
      y1="64"
      x2="430"
      y2="576"
      gradientUnits="userSpaceOnUse"
    >
      <stop stop-color="#298AFC" />
      <stop offset="0.489583" stop-color="#00E0FF" />
      <stop offset="1" stop-color="#298AFC" />
    </linearGradient>
    <linearGradient
      id="paint2_linear_21_34"
      x1="406"
      y1="187"
      x2="406"
      y2="384"
      gradientUnits="userSpaceOnUse"
    >
      <stop stop-color="#298AFC" />
      <stop offset="0.53125" stop-color="#00E0FF" />
      <stop offset="1" stop-color="#298AFC" />
    </linearGradient>
    <linearGradient
      id="paint3_linear_21_34"
      x1="431"
      y1="268"
      x2="431"
      y2="404"
      gradientUnits="userSpaceOnUse"
    >
      <stop stop-color="#298AFC" />
      <stop offset="0.510417" stop-color="#00E0FF" />
      <stop offset="1" stop-color="#298AFC" />
    </linearGradient>
    <linearGradient
      id="paint4_linear_21_34"
      x1="566"
      y1="246"
      x2="566"
      y2="286"
      gradientUnits="userSpaceOnUse"
    >
      <stop stop-color="#00E0FF" />
      <stop offset="1" stop-color="#298AFC" />
    </linearGradient>
    <clipPath id="clip0_21_34">
      <rect
        width="512"
        height="512"
        fill="white"
        transform="translate(174 64)"
      />
    </clipPath>
  </defs>
</svg>
