<svg
  width="24"
  height="24"
  viewBox="0 0 24 24"
  fill="none"
  xmlns="http://www.w3.org/2000/svg"
>
  <path
    d="M12 15.9739C12.2833 15.9739 12.521 15.8707 12.713 15.6643C12.905 15.4579 13.0007 15.2028 13 14.899C13 14.5944 12.904 14.3389 12.712 14.1326C12.52 13.9262 12.2827 13.8233 12 13.8241C11.7167 13.8241 11.479 13.9272 11.287 14.1336C11.095 14.34 10.9993 14.5951 11 14.899C11 15.2035 11.096 15.459 11.288 15.6654C11.48 15.8718 11.7173 15.9746 12 15.9739ZM12 11.6742C12.2833 11.6742 12.521 11.571 12.713 11.3647C12.905 11.1583 13.0007 10.9032 13 10.5993V6.29966C13 5.9951 12.904 5.73963 12.712 5.53324C12.52 5.32686 12.2827 5.22403 12 5.22474C11.7167 5.22474 11.479 5.32794 11.287 5.53432C11.095 5.7407 10.9993 5.99582 11 6.29966V10.5993C11 10.7426 11.025 10.8817 11.075 11.0164C11.125 11.1511 11.196 11.2672 11.288 11.3647C11.3793 11.4635 11.4873 11.5399 11.612 11.5936C11.7367 11.6474 11.866 11.6742 12 11.6742ZM6 19.1986L3.7 21.6709C3.38333 22.0113 3.02067 22.0876 2.612 21.8999C2.20333 21.7121 1.99933 21.376 2 20.8916V4.14983C2 3.55863 2.196 3.05234 2.588 2.63098C2.98 2.20961 3.45067 1.99929 4 2H20C20.55 2 21.021 2.21068 21.413 2.63205C21.805 3.05342 22.0007 3.55934 22 4.14983V17.0488C22 17.64 21.804 18.1463 21.412 18.5676C21.02 18.989 20.5493 19.1993 20 19.1986H6ZM4 17.0488H20V4.14983H4V17.0488Z"
    fill="currentColor"
  />
</svg>
