<svg xmlns="http://www.w3.org/2000/svg" width="1em" height="1em" viewBox="0 0 24 24">
  <path
    fill="currentColor"
    d="m19.075 21.9l-17-16.975q-.3-.3-.3-.712t.3-.713q.3-.3.713-.3t.712.3l17 17q.3.3.3.7t-.3.7q-.3.3-.712.3t-.713-.3m-3.25-8.9l-2-2H17q.425 0 .713.288T18 12q0 .425-.288.713T17 13zm-5-5l-2-2H20q.425 0 .713.288T21 7q0 .425-.288.713T20 8zM11 18q-.425 0-.712-.288T10 17q0-.425.288-.712T11 16h2q.425 0 .713.288T14 17q0 .425-.288.713T13 18zm-.85-5H7q-.425 0-.712-.288T6 12q0-.425.288-.712T7 11h3.15zm-5-5H4q-.425 0-.712-.288T3 7q0-.425.288-.712T4 6h1.15z"
  />
</svg>
