<svg
  width="24"
  height="24"
  viewBox="0 0 24 24"
  fill="none"
  xmlns="http://www.w3.org/2000/svg"
>
  <path
    d="M19.5 5.5H4.5C4.23478 5.5 3.98043 5.60536 3.79289 5.79289C3.60536 5.98043 3.5 6.23478 3.5 6.5V15.5C3.5 15.7652 3.60536 16.0196 3.79289 16.2071C3.98043 16.3946 4.23478 16.5 4.5 16.5H9V18H4.5C3.83696 18 3.20107 17.7366 2.73223 17.2678C2.26339 16.7989 2 16.163 2 15.5V6.5C2 5.83696 2.26339 5.20107 2.73223 4.73223C3.20107 4.26339 3.83696 4 4.5 4H19.5C20.163 4 20.7989 4.26339 21.2678 4.73223C21.7366 5.20107 22 5.83696 22 6.5V15.5C22.0001 16.0807 21.7981 16.6433 21.4286 17.0913C21.0591 17.5393 20.5451 17.8447 19.975 17.955C19.8984 17.5076 19.651 17.1074 19.285 16.839L18.946 16.5H19.5C19.7652 16.5 20.0196 16.3946 20.2071 16.2071C20.3946 16.0196 20.5 15.7652 20.5 15.5V6.5C20.5 6.23478 20.3946 5.98043 20.2071 5.79289C20.0196 5.60536 19.7652 5.5 19.5 5.5ZM11.28 10.22C11.1751 10.1152 11.0415 10.0439 10.8961 10.015C10.7507 9.98615 10.6 10.001 10.4631 10.0577C10.3261 10.1144 10.209 10.2105 10.1266 10.3337C10.0442 10.4569 10.0001 10.6018 10 10.75V21.25C9.99999 21.4101 10.0512 21.5659 10.1461 21.6948C10.241 21.8237 10.3746 21.9188 10.5275 21.9663C10.6803 22.0138 10.8444 22.0111 10.9956 21.9587C11.1468 21.9063 11.2773 21.8069 11.368 21.675L13.835 18.087L18.095 18.984C18.2531 19.0173 18.4177 18.9986 18.5644 18.9307C18.711 18.8629 18.8318 18.7495 18.9088 18.6074C18.9858 18.4654 19.0148 18.3022 18.9916 18.1423C18.9684 17.9824 18.8942 17.8343 18.78 17.72L11.28 10.22ZM11.5 18.835V12.561L15.936 16.996L13.655 16.516C13.5099 16.4855 13.3591 16.4987 13.2215 16.5538C13.0839 16.609 12.9658 16.7037 12.882 16.826L11.5 18.836V18.835Z"
    fill="currentColor"
  />
</svg>
