<svg
  width="24"
  height="24"
  viewBox="0 0 24 24"
  fill="none"
  xmlns="http://www.w3.org/2000/svg"
>
  <path
    d="M3.28 2.22C3.21134 2.14631 3.12854 2.08721 3.03654 2.04622C2.94454 2.00523 2.84523 1.98319 2.74452 1.98141C2.64382 1.97963 2.54379 1.99816 2.4504 2.03588C2.35702 2.0736 2.27218 2.12974 2.20096 2.20096C2.12974 2.27218 2.0736 2.35702 2.03588 2.4504C1.99816 2.54379 1.97963 2.64382 1.98141 2.74452C1.98319 2.84523 2.00523 2.94454 2.04622 3.03654C2.08721 3.12854 2.14631 3.21134 2.22 3.28L3.265 4.326C2.88085 4.54427 2.5614 4.86044 2.33919 5.24233C2.11697 5.62421 1.99994 6.05817 2 6.5V15.5C2 16.163 2.26339 16.7989 2.73223 17.2678C3.20107 17.7366 3.83696 18 4.5 18H9V16.5H4.5C4.23478 16.5 3.98043 16.3946 3.79289 16.2071C3.60536 16.0196 3.5 15.7652 3.5 15.5V6.5C3.50007 6.24504 3.59751 5.99974 3.77242 5.81424C3.94733 5.62873 4.18649 5.51704 4.441 5.502L10 11.06V21.25C9.99999 21.4101 10.0512 21.5659 10.1461 21.6948C10.241 21.8237 10.3746 21.9188 10.5275 21.9663C10.6803 22.0138 10.8444 22.0111 10.9956 21.9587C11.1468 21.9063 11.2773 21.8069 11.368 21.675L13.835 18.087L17.877 18.937L20.719 21.78C20.8604 21.9167 21.0498 21.9924 21.2465 21.9908C21.4431 21.9891 21.6313 21.9104 21.7704 21.7714C21.9095 21.6324 21.9885 21.4443 21.9903 21.2477C21.9921 21.051 21.9166 20.8615 21.78 20.72L3.28 2.22ZM11.5 12.56L15.935 16.996L13.655 16.516C13.5099 16.4855 13.3591 16.4987 13.2215 16.5538C13.0839 16.609 12.9658 16.7037 12.882 16.826L11.5 18.836V12.56ZM20.5 15.5C20.5001 15.7361 20.4165 15.9647 20.2643 16.1451C20.112 16.3256 19.9008 16.4463 19.668 16.486L20.811 17.629C21.1745 17.4052 21.4747 17.0921 21.6828 16.7194C21.8909 16.3467 22.0002 15.9269 22 15.5V6.5C22 5.83696 21.7366 5.20107 21.2678 4.73223C20.7989 4.26339 20.163 4 19.5 4H7.182L8.682 5.5H19.5C19.7652 5.5 20.0196 5.60536 20.2071 5.79289C20.3946 5.98043 20.5 6.23478 20.5 6.5V15.5Z"
    fill="currentColor"
  />
</svg>
