<svg
  width="512"
  height="512"
  viewBox="0 0 512 512"
  fill="none"
  xmlns="http://www.w3.org/2000/svg"
>
  <g clip-path="url(#clip0_4_7)">
    <path
      d="M471.53 121.216C498.583 160.652 507.202 232.113 482.012 304.295C457.133 375.59 399.598 446.16 296.671 483.551C283.528 488.325 268.398 478.295 268.398 461.469C268.398 432.662 246.445 409.672 219.129 405.546C168.866 397.953 101.449 380.083 58.2155 338.174C36.9834 317.592 21.5141 291.156 16.6338 256.608C11.7197 221.821 17.3884 177.656 40.5966 121.65C43.5973 114.408 45.5869 105.684 44.7029 96.6213C43.8504 87.8823 42.4257 78.4389 41.0351 69.3862C40.9365 68.744 40.838 68.1037 40.7398 67.4655C39.4288 58.9421 38.1743 50.7864 37.3211 43.2303C36.3934 35.0138 36.0457 28.3386 36.4422 23.3757C36.5498 22.0294 36.6989 20.9928 36.8479 20.2098C39.4777 20.7389 43.2527 22.0391 48.342 24.3466C53.9242 26.8776 60.1005 30.1528 66.8631 33.8017C67.6744 34.2395 68.4946 34.6829 69.322 35.1302C75.22 38.3187 81.4885 41.7075 87.5826 44.7022C102.567 52.0659 118.908 49.8877 131.728 43.8045C181.647 20.1174 224.697 13.2058 263.796 15.377C303.139 17.5617 339.272 28.9755 375.525 43.1477C385.922 47.2121 398.122 48.4972 409.983 44.5466C417.221 42.1362 424.784 39.251 431.937 36.4924C432.785 36.1653 433.626 35.8403 434.461 35.518C440.793 33.0724 446.733 30.7782 452.207 28.8567C457.032 27.1629 461.026 25.9301 464.188 25.1825C464.318 27.6284 464.303 30.7069 464.107 34.4383C463.513 45.7149 461.455 60.0521 459.189 74.9429C456.5 92.604 463.078 108.893 471.53 121.216ZM34.4973 19.9447C34.4961 19.9435 34.5217 19.9399 34.5779 19.9377C34.5266 19.9449 34.4985 19.946 34.4973 19.9447ZM463.434 19.9301C463.437 19.926 463.462 19.9815 463.502 20.1089C463.452 19.9978 463.432 19.9341 463.434 19.9301Z"
      fill="#1C2732"
      stroke="url(#paint0_linear_4_7)"
      stroke-width="30"
      stroke-linecap="round"
      stroke-linejoin="round"
    />
    <path
      d="M159 170C216.665 167.483 277.376 169.339 331 161"
      stroke="#298AFC"
      stroke-width="30"
      stroke-linecap="round"
      stroke-linejoin="round"
    />
    <path
      d="M227.342 123C221.935 195.62 221.155 286.719 240 320"
      stroke="url(#paint1_linear_4_7)"
      stroke-width="30"
      stroke-linecap="round"
      stroke-linejoin="round"
    />
    <path
      d="M293.823 204C276.009 250.419 250.671 303.879 193.71 319.236C158.277 328.789 141.494 275.701 196.562 237.273C234.944 210.477 295.412 210.837 326.344 233.236C392.357 281.06 322.194 327.683 262.588 340"
      stroke="url(#paint2_linear_4_7)"
      stroke-width="30"
      stroke-linecap="round"
      stroke-linejoin="round"
    />
    <circle cx="392" cy="202" r="20" fill="url(#paint3_linear_4_7)" />
  </g>
  <defs>
    <linearGradient
      id="paint0_linear_4_7"
      x1="256"
      y1="0"
      x2="256"
      y2="512"
      gradientUnits="userSpaceOnUse"
    >
      <stop stop-color="#298AFC" />
      <stop offset="0.489583" stop-color="#00E0FF" />
      <stop offset="1" stop-color="#298AFC" />
    </linearGradient>
    <linearGradient
      id="paint1_linear_4_7"
      x1="232"
      y1="123"
      x2="232"
      y2="320"
      gradientUnits="userSpaceOnUse"
    >
      <stop stop-color="#298AFC" />
      <stop offset="0.53125" stop-color="#00E0FF" />
      <stop offset="1" stop-color="#298AFC" />
    </linearGradient>
    <linearGradient
      id="paint2_linear_4_7"
      x1="257"
      y1="204"
      x2="257"
      y2="340"
      gradientUnits="userSpaceOnUse"
    >
      <stop stop-color="#298AFC" />
      <stop offset="0.510417" stop-color="#00E0FF" />
      <stop offset="1" stop-color="#298AFC" />
    </linearGradient>
    <linearGradient
      id="paint3_linear_4_7"
      x1="392"
      y1="182"
      x2="392"
      y2="222"
      gradientUnits="userSpaceOnUse"
    >
      <stop stop-color="#00E0FF" />
      <stop offset="1" stop-color="#298AFC" />
    </linearGradient>
    <clipPath id="clip0_4_7">
      <rect width="512" height="512" fill="white" />
    </clipPath>
  </defs>
</svg>
