<svg
  width="219"
  height="49"
  viewBox="0 0 219 49"
  fill="none"
  xmlns="http://www.w3.org/2000/svg"
>
  <path
    d="M23.8667 38.0812C26.2967 38.0812 28.3513 40.1684 27.1782 42.2965C27.0389 42.5493 26.8866 42.7962 26.7218 43.0362C25.7146 44.503 24.2829 45.6461 22.6079 46.3212C20.933 46.9962 19.0898 47.1728 17.3117 46.8287C15.5335 46.4846 13.9002 45.6351 12.6182 44.3878C11.3362 43.1405 10.4632 41.5513 10.1095 39.8211C9.75579 38.091 9.93732 36.2977 10.6311 34.668C11.3249 33.0383 12.4998 31.6454 14.0073 30.6653C14.2829 30.4862 14.5674 30.3223 14.8593 30.174C17.0261 29.0739 19.1 31.1322 19.1 33.5622V33.6812C19.1 36.1112 21.07 38.0812 23.5 38.0812H23.8667Z"
    fill="currentColor"
  />
  <path
    d="M31.5666 21.6702C31.5666 19.2401 33.6405 17.1819 35.8073 18.282C36.0992 18.4302 36.3837 18.5941 36.6593 18.7733C38.1667 19.7533 39.3417 21.1463 40.0355 22.776C40.7293 24.4057 40.9108 26.199 40.5571 27.9291C40.2034 29.6592 39.3304 31.2484 38.0484 32.4957C36.7664 33.7431 35.1331 34.5925 33.3549 34.9367C31.5767 35.2808 29.7336 35.1042 28.0586 34.4291C26.3836 33.7541 24.952 32.6109 23.9448 31.1442C23.7799 30.9042 23.6277 30.6573 23.4883 30.4045C22.3153 28.2763 24.3698 26.1891 26.7999 26.1891H27.1666C29.5966 26.1891 31.5666 24.2192 31.5666 21.7891V21.6702Z"
    fill="currentColor"
  />
  <path
    d="M19.2223 22.3838C19.2223 24.8138 17.1935 26.8563 14.912 26.0198C14.0438 25.7014 13.2113 25.2863 12.4319 24.7796C10.422 23.4729 8.85544 21.6157 7.93037 19.4427C7.0053 17.2698 6.76326 14.8787 7.23485 12.5719C7.70645 10.2651 8.8705 8.14618 10.5798 6.48306C12.2891 4.81995 14.4669 3.68736 16.8378 3.22851C19.2087 2.76965 21.6662 3.00515 23.8995 3.90522C26.1328 4.8053 28.0417 6.32951 29.3847 8.28512C29.8845 9.01304 30.2977 9.78855 30.6194 10.5967C31.5182 12.8544 29.4745 14.8919 27.0445 14.8919H23.6223C21.1922 14.8919 19.2223 16.8618 19.2223 19.2919V22.3838Z"
    fill="currentColor"
  />
  <path
    d="M48.8523 46L54.6477 11.0909H68.4205C71.0568 11.0909 73.2216 11.5966 74.9148 12.608C76.6193 13.608 77.8125 15 78.4943 16.7841C79.1875 18.5568 79.3466 20.6023 78.9716 22.9205C78.5852 25.25 77.7443 27.3011 76.4489 29.0739C75.1648 30.8352 73.4943 32.2102 71.4375 33.1989C69.3807 34.1875 67.0057 34.6818 64.3125 34.6818H55.5341L56.5057 28.767H64.0909C65.5227 28.767 66.7443 28.5227 67.7557 28.0341C68.7784 27.5341 69.5909 26.8466 70.1932 25.9716C70.7955 25.0852 71.1875 24.0682 71.3693 22.9205C71.5625 21.75 71.5 20.733 71.1818 19.8693C70.8636 19.0057 70.2784 18.3352 69.4261 17.858C68.5852 17.3693 67.4545 17.125 66.0341 17.125H61.0568L56.233 46H48.8523ZM92.8509 11.0909L87.0554 46H79.794L85.5895 11.0909H92.8509ZM100.27 46.4943C98.6108 46.4943 97.1733 46.2045 95.9574 45.625C94.7528 45.0341 93.8665 44.1591 93.2983 43C92.7301 41.8409 92.5881 40.4034 92.8722 38.6875C93.1222 37.233 93.5938 36.017 94.2869 35.0398C94.9915 34.0511 95.8494 33.2557 96.8608 32.6534C97.8722 32.0511 98.9915 31.5909 100.219 31.2727C101.457 30.9545 102.736 30.7386 104.054 30.625C105.577 30.4659 106.815 30.3125 107.77 30.1648C108.736 30.017 109.457 29.8068 109.935 29.5341C110.412 29.25 110.702 28.8295 110.804 28.2727V28.1705C110.974 27.1023 110.776 26.2727 110.207 25.6818C109.651 25.0795 108.759 24.7784 107.531 24.7784C106.236 24.7784 105.134 25.0625 104.224 25.6307C103.327 26.1989 102.685 26.9205 102.298 27.7955L95.6847 27.25C96.2756 25.6591 97.1676 24.2841 98.3608 23.125C99.5653 21.9545 101.014 21.0568 102.707 20.4318C104.401 19.7955 106.298 19.4773 108.401 19.4773C109.855 19.4773 111.213 19.6477 112.474 19.9886C113.747 20.3295 114.844 20.858 115.764 21.5739C116.696 22.2898 117.366 23.2102 117.776 24.3352C118.196 25.4489 118.281 26.7841 118.031 28.3409L115.082 46H108.196L108.81 42.3693H108.605C108.048 43.1875 107.366 43.9091 106.56 44.5341C105.753 45.1477 104.827 45.6307 103.781 45.983C102.736 46.3239 101.565 46.4943 100.27 46.4943ZM103.185 41.483C104.241 41.483 105.213 41.2727 106.099 40.8523C106.997 40.4205 107.736 39.8409 108.315 39.1136C108.906 38.3864 109.281 37.5625 109.44 36.642L109.884 33.8636C109.656 34.0114 109.327 34.142 108.895 34.2557C108.474 34.3693 108.014 34.4773 107.514 34.5795C107.026 34.6705 106.531 34.7557 106.031 34.8352C105.531 34.9034 105.082 34.9716 104.685 35.0398C103.81 35.1648 103.026 35.3636 102.332 35.6364C101.639 35.9091 101.077 36.2784 100.645 36.7443C100.213 37.1989 99.946 37.767 99.8438 38.4489C99.6847 39.4375 99.9176 40.1932 100.543 40.7159C101.179 41.2273 102.06 41.483 103.185 41.483ZM145.585 27.2841L138.989 27.6932C138.955 27.1136 138.795 26.5966 138.511 26.142C138.239 25.6761 137.835 25.3068 137.301 25.0341C136.778 24.7614 136.119 24.625 135.324 24.625C134.131 24.625 133.068 24.8977 132.136 25.4432C131.205 25.9886 130.676 26.6875 130.551 27.5398C130.449 28.0852 130.591 28.5455 130.977 28.9205C131.364 29.2955 132.142 29.6136 133.312 29.875L137.915 30.8295C140.369 31.3523 142.142 32.2216 143.233 33.4375C144.335 34.6534 144.727 36.2443 144.409 38.2102C144.125 39.8807 143.392 41.3409 142.21 42.5909C141.028 43.8295 139.528 44.7955 137.71 45.4886C135.892 46.1705 133.875 46.5114 131.659 46.5114C128.102 46.5114 125.398 45.7841 123.545 44.3295C121.693 42.875 120.801 40.9034 120.869 38.4148L127.96 38.0398C128.017 39.108 128.392 39.9148 129.085 40.4602C129.778 40.9943 130.727 41.267 131.932 41.2784C133.284 41.3011 134.432 41.0227 135.375 40.4432C136.33 39.8523 136.869 39.1364 136.994 38.2955C137.085 37.7045 136.915 37.2273 136.483 36.8636C136.063 36.5 135.29 36.1989 134.165 35.9602L129.801 35.0568C127.324 34.5455 125.545 33.6307 124.466 32.3125C123.386 30.9943 123.017 29.3182 123.358 27.2841C123.631 25.6591 124.307 24.267 125.386 23.108C126.477 21.9375 127.881 21.0398 129.597 20.4148C131.324 19.7898 133.273 19.4773 135.443 19.4773C138.841 19.4773 141.398 20.1761 143.114 21.5739C144.841 22.9716 145.665 24.875 145.585 27.2841ZM147.72 46L152.084 19.8182H158.987L158.237 24.4375H158.527C159.322 22.9034 160.43 21.6932 161.851 20.8068C163.283 19.9205 164.891 19.4773 166.675 19.4773C168.447 19.4773 169.891 19.9261 171.004 20.8239C172.129 21.7102 172.777 22.9148 172.947 24.4375H173.22C173.993 22.9375 175.158 21.7386 176.714 20.8409C178.271 19.9318 180.01 19.4773 181.93 19.4773C184.351 19.4773 186.203 20.2557 187.487 21.8125C188.771 23.3693 189.175 25.5625 188.697 28.392L185.766 46H178.504L181.232 29.8239C181.447 28.358 181.232 27.267 180.584 26.5511C179.936 25.8239 179.033 25.4602 177.874 25.4602C176.555 25.4602 175.459 25.8807 174.584 26.7216C173.709 27.5511 173.169 28.6477 172.964 30.0114L170.254 46H163.214L165.976 29.6705C166.169 28.375 165.959 27.3523 165.345 26.6023C164.743 25.8409 163.839 25.4602 162.635 25.4602C161.839 25.4602 161.084 25.6648 160.368 26.0739C159.663 26.4716 159.067 27.0341 158.578 27.7614C158.089 28.4773 157.771 29.3182 157.624 30.2841L154.964 46H147.72ZM203.314 46.5114C200.643 46.5114 198.433 45.9432 196.683 44.8068C194.933 43.6591 193.7 42.0682 192.984 40.0341C192.28 37.9886 192.149 35.608 192.592 32.892C193.024 30.2102 193.922 27.8636 195.286 25.8523C196.649 23.8409 198.382 22.2784 200.484 21.1648C202.587 20.0398 204.956 19.4773 207.592 19.4773C210.251 19.4773 212.456 20.0511 214.206 21.1989C215.956 22.3352 217.189 23.9261 217.905 25.9716C218.621 28.017 218.757 30.3977 218.314 33.1136C217.871 35.7841 216.962 38.125 215.587 40.1364C214.212 42.1477 212.479 43.7159 210.388 44.8409C208.297 45.9545 205.939 46.5114 203.314 46.5114ZM204.03 40.8864C205.257 40.8864 206.342 40.5398 207.286 39.8466C208.24 39.142 209.03 38.1875 209.655 36.983C210.291 35.767 210.734 34.392 210.984 32.858C211.234 31.3466 211.251 30.0057 211.036 28.8352C210.82 27.6534 210.365 26.7216 209.672 26.0398C208.99 25.358 208.053 25.017 206.859 25.017C205.632 25.017 204.541 25.3693 203.587 26.0739C202.632 26.767 201.842 27.7216 201.217 28.9375C200.592 30.1534 200.155 31.5341 199.905 33.0795C199.666 34.5795 199.649 35.9205 199.854 37.1023C200.058 38.2727 200.507 39.1989 201.2 39.8807C201.893 40.5511 202.837 40.8864 204.03 40.8864Z"
    fill="currentColor"
  />
</svg>
