<svg
  width="1em"
  height="1em"
  viewBox="0 0 24 24"
  fill="none"
  xmlns="http://www.w3.org/2000/svg"
>
  <path
    d="M8.205 4.843C8.44481 4.73518 8.71744 4.72616 8.96386 4.81787C9.21028 4.90958 9.41066 5.09466 9.52163 5.33303C9.6326 5.5714 9.64522 5.84388 9.55676 6.09149C9.4683 6.33909 9.28589 6.5419 9.049 6.656C7.60286 7.32703 6.42924 8.47178 5.7224 9.90076C5.01557 11.3297 4.81792 12.9572 5.16216 14.5139C5.50641 16.0705 6.37191 17.4629 7.61539 18.4606C8.85887 19.4582 10.4058 20.0013 12 20C13.5922 20.0001 15.1368 19.4572 16.3788 18.461C17.6209 17.4649 18.4861 16.0749 18.8316 14.5207C19.1771 12.9664 18.9823 11.3408 18.2793 9.91226C17.5764 8.48367 16.4072 7.33751 14.965 6.663C14.7294 6.54774 14.5486 6.34455 14.4614 6.09722C14.3742 5.84989 14.3877 5.57821 14.4989 5.34071C14.6101 5.10321 14.8102 4.9189 15.056 4.82748C15.3018 4.73607 15.5736 4.74488 15.813 4.852C17.3633 5.57658 18.6748 6.72833 19.5936 8.17209C20.5123 9.61584 21.0002 11.2917 21 13.003C21 17.972 16.97 22 12 22C7.03 22 3 17.972 3 13.003C2.99966 11.2882 3.48942 9.60907 4.41159 8.16336C5.33376 6.71765 6.64992 5.56562 8.205 4.843ZM12 2C12.2449 2.00003 12.4813 2.08996 12.6644 2.25272C12.8474 2.41547 12.9643 2.63975 12.993 2.883L13 3V10C12.9997 10.2549 12.9021 10.5 12.7272 10.6854C12.5522 10.8707 12.313 10.9822 12.0586 10.9972C11.8042 11.0121 11.5536 10.9293 11.3582 10.7657C11.1627 10.6021 11.0371 10.3701 11.007 10.117L11 10V3C11 2.73478 11.1054 2.48043 11.2929 2.29289C11.4804 2.10536 11.7348 2 12 2Z"
    fill="currentColor"
  />
</svg>
