<svg
  width="24"
  height="24"
  viewBox="0 0 24 24"
  fill="none"
  xmlns="http://www.w3.org/2000/svg"
>
  <path
    d="M21.1783 13.5733C20.899 13.4862 20.5966 13.5131 20.337 13.6482C20.0775 13.7833 19.8818 14.0155 19.7926 14.2944C19.2689 15.8968 18.2479 17.2901 16.8781 18.2718C15.5084 19.2534 13.8614 19.772 12.1767 19.7523C10.093 19.776 8.08489 18.9718 6.59279 17.5161C5.10069 16.0604 4.24636 14.0721 4.21715 11.987C4.24636 9.9019 5.10069 7.91352 6.59279 6.45784C8.08489 5.00216 10.093 4.198 12.1767 4.2217C14.0586 4.21715 15.8826 4.87266 17.3316 6.07427L14.926 5.67491C14.7818 5.65118 14.6344 5.65619 14.4921 5.68967C14.3499 5.72315 14.2157 5.78444 14.0972 5.87001C13.9787 5.95558 13.8783 6.06374 13.8018 6.18827C13.7252 6.3128 13.674 6.45125 13.6511 6.59566C13.6274 6.73993 13.6324 6.88747 13.6659 7.02979C13.6993 7.17212 13.7606 7.30642 13.8461 7.42498C13.9316 7.54354 14.0397 7.64401 14.1641 7.72062C14.2886 7.79723 14.4269 7.84846 14.5712 7.87138L19.2716 8.64791H19.46C19.5886 8.64776 19.7161 8.62524 19.837 8.58135C19.8776 8.56592 19.9151 8.54339 19.9478 8.51479C20.0273 8.48521 20.102 8.4441 20.1695 8.39276L20.2693 8.27074C20.2693 8.21527 20.3691 8.1709 20.4134 8.10434C20.4578 8.03778 20.4134 7.99341 20.4688 7.94903C20.4995 7.88443 20.5254 7.8177 20.5464 7.74935L21.3779 3.31205C21.4055 3.16637 21.4042 3.01667 21.3741 2.87149C21.3439 2.7263 21.2855 2.58849 21.2021 2.46591C21.1187 2.34332 21.012 2.23838 20.8881 2.15705C20.7642 2.07573 20.6255 2.01963 20.4799 1.99195C20.3343 1.96427 20.1847 1.96556 20.0397 1.99574C19.8946 2.02591 19.7569 2.08439 19.6344 2.16783C19.387 2.33634 19.2166 2.5963 19.1607 2.89051L18.8614 4.49903C17.0056 2.88966 14.6324 2.00352 12.1767 2.00305C9.50497 1.97938 6.93297 3.0173 5.02508 4.88905C3.11719 6.7608 2.02926 9.31349 2 11.987C2.02926 14.6605 3.11719 17.2132 5.02508 19.0849C6.93297 20.9567 9.50497 21.9946 12.1767 21.9709C14.3419 22.0042 16.4606 21.341 18.2208 20.0788C19.981 18.8167 21.2898 17.0223 21.9543 14.96C21.9964 14.8179 22.0096 14.6689 21.9931 14.5217C21.9767 14.3745 21.931 14.2321 21.8587 14.1028C21.7863 13.9736 21.6889 13.8601 21.572 13.7692C21.4552 13.6783 21.3213 13.6117 21.1783 13.5733Z"
    fill="currentColor"
  />
</svg>
