<svg
  width="512"
  height="512"
  viewBox="0 0 512 512"
  fill="none"
  xmlns="http://www.w3.org/2000/svg"
>
  <path
    d="M455.354 132.94C479.708 169.514 487.251 235.131 463.837 301.339C440.726 366.69 387.769 431.279 293.3 465.606C281.924 469.739 268.591 461.127 268.591 446.22C268.591 418.932 247.799 397.239 222.009 393.342C175.569 386.325 113.538 369.844 73.7774 331.38C54.2801 312.518 40.0728 288.319 35.5413 256.686C30.9758 224.815 36.0756 184.244 57.3574 132.663C60.3396 125.435 62.3377 116.699 61.4202 107.608C60.6041 99.5209 59.2803 90.8101 58.003 82.5017C57.9431 82.1124 57.8834 81.724 57.8238 81.3364C56.5864 73.292 55.4082 65.6327 54.6205 58.5677C53.7841 51.0654 53.4907 45.0526 53.8549 40.6352C53.9039 40.0411 53.9615 39.519 54.0229 39.0623C56.1574 39.6135 59.0567 40.6535 62.8297 42.3441C67.8217 44.5808 73.3794 47.5053 79.5124 50.8093C80.5229 51.3537 81.5505 51.9092 82.5912 52.4719C87.6917 55.2292 93.1073 58.1568 98.3739 60.7811C113.365 68.2512 129.73 66.0575 142.531 60.0383C232.675 17.6542 299.665 34.0394 365.376 59.6416C375.761 63.6876 387.983 64.988 399.871 60.9734C406.529 58.7245 413.464 56.0675 419.988 53.5491C420.518 53.3446 421.045 53.1412 421.569 52.9389C427.616 50.6031 433.253 48.4261 438.411 46.6263C442.052 45.3557 445.137 44.3884 447.678 43.7247C447.727 45.5554 447.7 47.7354 447.577 50.2799C447.09 60.3334 445.284 73.1983 443.232 86.7382C440.554 104.398 447.175 120.658 455.354 132.94ZM51.023 38.5722C51.0224 38.5716 51.0386 38.5702 51.0731 38.5698C51.0408 38.5726 51.0235 38.5728 51.023 38.5722ZM446.978 37.7804C446.982 37.7745 447.013 37.8473 447.062 38.0171C446.998 37.8713 446.974 37.7864 446.978 37.7804Z"
    stroke="url(#paint0_linear_4_7)"
    stroke-width="30"
    stroke-linecap="round"
    stroke-linejoin="round"
  />
  <path
    d="M159 170C216.665 167.483 277.376 169.339 331 161"
    stroke="#298AFC"
    stroke-width="30"
    stroke-linecap="round"
    stroke-linejoin="round"
  />
  <path
    d="M227.342 123C221.935 195.62 221.155 286.719 240 320"
    stroke="url(#paint1_linear_4_7)"
    stroke-width="30"
    stroke-linecap="round"
    stroke-linejoin="round"
  />
  <path
    d="M293.823 204C276.009 250.419 250.671 303.879 193.71 319.236C158.277 328.789 141.494 275.701 196.562 237.273C234.944 210.477 295.412 210.837 326.344 233.236C392.357 281.06 322.194 327.683 262.588 340"
    stroke="url(#paint2_linear_4_7)"
    stroke-width="30"
    stroke-linecap="round"
    stroke-linejoin="round"
  />
  <circle cx="392" cy="202" r="20" fill="url(#paint3_linear_4_7)" />
  <defs>
    <linearGradient
      id="paint0_linear_4_7"
      x1="256"
      y1="19"
      x2="256"
      y2="493"
      gradientUnits="userSpaceOnUse"
    >
      <stop stop-color="#298AFC" />
      <stop offset="0.489583" stop-color="#00E0FF" />
      <stop offset="1" stop-color="#298AFC" />
    </linearGradient>
    <linearGradient
      id="paint1_linear_4_7"
      x1="232"
      y1="123"
      x2="232"
      y2="320"
      gradientUnits="userSpaceOnUse"
    >
      <stop stop-color="#298AFC" />
      <stop offset="0.53125" stop-color="#00E0FF" />
      <stop offset="1" stop-color="#298AFC" />
    </linearGradient>
    <linearGradient
      id="paint2_linear_4_7"
      x1="257"
      y1="204"
      x2="257"
      y2="340"
      gradientUnits="userSpaceOnUse"
    >
      <stop stop-color="#298AFC" />
      <stop offset="0.510417" stop-color="#00E0FF" />
      <stop offset="1" stop-color="#298AFC" />
    </linearGradient>
    <linearGradient
      id="paint3_linear_4_7"
      x1="392"
      y1="182"
      x2="392"
      y2="222"
      gradientUnits="userSpaceOnUse"
    >
      <stop stop-color="#00E0FF" />
      <stop offset="1" stop-color="#298AFC" />
    </linearGradient>
  </defs>
</svg>
