<svg
  width="512"
  height="512"
  viewBox="0 0 512 512"
  fill="none"
  xmlns="http://www.w3.org/2000/svg"
>
  <path
    d="M219.768 408.174C238.826 411.054 253.591 426.946 253.591 446.22C253.591 470.113 275.966 487.864 298.423 479.704C496.103 407.873 523.087 207.592 467.839 124.627C460.787 114.037 456.155 101.566 458.062 88.9864C462.138 62.1026 465.782 34.5746 458.653 29.0238C451.014 23.0762 420.329 38.2319 395.071 46.7619C387.154 49.4356 378.608 48.6985 370.822 45.665C303.276 19.348 231.587 1.59043 136.149 46.4639C126.249 51.1187 114.855 52.2346 105.064 47.3555C80.8096 35.2699 53.5516 16.612 43.5581 26.2416C32.4696 36.9264 43.4134 78.5677 46.496 109.114C47.1033 115.132 45.7981 121.351 43.4912 126.942C-44.4591 340.107 125.634 393.95 219.768 408.174Z"
    fill="url(#paint0_linear_9_2)"
    stroke="black"
    stroke-linecap="round"
    stroke-linejoin="round"
  />
  <path
    d="M159 170C216.665 167.483 277.376 169.339 331 161"
    stroke="white"
    stroke-width="30"
    stroke-linecap="round"
    stroke-linejoin="round"
  />
  <path
    d="M227.342 123C221.935 195.62 221.155 286.719 240 320"
    stroke="white"
    stroke-width="30"
    stroke-linecap="round"
    stroke-linejoin="round"
  />
  <path
    d="M293.823 204C276.009 250.419 250.671 303.879 193.71 319.236C158.277 328.789 141.494 275.701 196.562 237.273C234.944 210.477 295.412 210.837 326.344 233.236C392.357 281.06 322.194 327.683 262.588 340"
    stroke="white"
    stroke-width="30"
    stroke-linecap="round"
    stroke-linejoin="round"
  />
  <circle cx="392" cy="202" r="20" fill="white" />
  <defs>
    <linearGradient
      id="paint0_linear_9_2"
      x1="256"
      y1="19"
      x2="256"
      y2="493"
      gradientUnits="userSpaceOnUse"
    >
      <stop stop-color="#298AFC" />
      <stop offset="0.484375" stop-color="#00E0FF" />
      <stop offset="1" stop-color="#298AFC" />
    </linearGradient>
  </defs>
</svg>
