<svg width="0.88em" height="1em" viewBox="0 0 28 32" fill="none" xmlns="http://www.w3.org/2000/svg">
  <path
    fill-rule="evenodd"
    clip-rule="evenodd"
    d="M0 6C0 3.79375 1.79375 2 4 2H24C26.2062 2 28 3.79375 28 6V26C28 28.2062 26.2062 30 24 30H4C1.79375 30 0 28.2062 0 26V6ZM22.8664 10.0819C23.0086 8.47238 21.3089 9.13519 21.3089 9.13519L21.3084 9.13476C20.0499 9.65579 18.7519 10.1853 17.4398 10.7205C13.3865 12.374 9.19959 14.0819 5.63238 15.7629C3.69644 16.4729 4.82957 17.183 4.82957 17.183L7.89907 18.1302C9.31525 18.5563 10.0708 18.0825 10.0708 18.0825L16.6814 13.585C19.0422 11.975 18.4756 13.3006 17.9091 13.8694L12.9513 18.604C12.1953 19.2668 12.5733 19.8347 12.9041 20.1191C13.8402 20.9449 16.1424 22.4559 17.1493 23.1168C17.412 23.2892 17.5865 23.4037 17.6256 23.4331C17.8618 23.6226 19.1367 24.4744 19.9863 24.2854C20.8364 24.0959 20.9309 23.007 20.9309 23.007L22.064 15.5739C22.2336 14.2875 22.4279 13.0508 22.5833 12.0617C22.731 11.1215 22.8436 10.4049 22.8664 10.0819Z"
    fill="currentColor"
  />
</svg>
